<svg width="160" height="160" viewBox="0 0 160 160" fill="none" xmlns="http://www.w3.org/2000/svg">
<circle cx="80" cy="80" r="80" fill="url(#paint0_linear_8438_226682)"/>
<path d="M81.0549 119.946L130.86 101.843C135.538 99.8842 136.334 97.9258 135.522 92.8239L127.041 64.0891C125.895 60.0734 123.461 58.3618 120.183 58.5264L47.5279 63.2168C45.0297 63.3649 43.9 64.8626 44.8547 67.2654L63.4401 111.816C67.2272 120.654 71.969 123.205 81.0549 119.946Z" fill="white"/>
<path d="M41.9608 60.4836L38.7783 52.765C38.5025 52.2736 38.1233 51.8528 37.6688 51.5337C37.2143 51.2147 36.6961 51.0055 36.1528 50.9217H24.5528C24.1052 50.8778 23.6544 50.9596 23.2479 51.1585C22.8415 51.3574 22.4945 51.6662 22.2435 52.0521C21.9926 52.438 21.847 52.8869 21.8222 53.3512C21.7973 53.8156 21.8941 54.2783 22.1024 54.6905L25.3007 62.442C25.5156 63.0415 25.9161 63.5505 26.44 63.8899C26.9638 64.2293 27.5815 64.3798 28.1967 64.3182L40.3377 63.5611C42.2631 63.3966 42.6768 62.1952 41.9608 60.4836Z" fill="white"/>
<defs>
<linearGradient id="paint0_linear_8438_226682" x1="155.481" y1="160" x2="11.0342" y2="-22.7904" gradientUnits="userSpaceOnUse">
<stop stop-color="#EE6B00"/>
<stop offset="1" stop-color="#FFE45E"/>
</linearGradient>
</defs>
</svg>
