<svg width="301" height="60" viewBox="0 0 301 60" fill="none" xmlns="http://www.w3.org/2000/svg">
<g clip-path="url(#clip0_8438_227088)">
<path d="M222.21 43.4077C222.213 43.7459 222.136 44.08 221.985 44.3826C221.833 44.6851 221.612 44.9472 221.339 45.1473C220.786 45.5622 220.108 45.7741 219.417 45.7471C218.702 45.8152 217.989 45.6028 217.429 45.1549C216.868 44.7071 216.504 44.0589 216.414 43.3477L217.405 43.1677C217.427 43.4181 217.499 43.6616 217.618 43.8832C217.737 44.1049 217.899 44.3002 218.096 44.4574C218.525 44.6997 219.015 44.8142 219.507 44.7874C219.94 44.7964 220.367 44.682 220.738 44.4574C220.919 44.3498 221.067 44.1955 221.168 44.0108C221.268 43.826 221.317 43.6177 221.309 43.4077C221.309 42.8378 220.918 42.4179 220.138 42.1779L217.915 41.5481C217.605 41.424 217.334 41.2189 217.131 40.9543C216.928 40.6897 216.799 40.3752 216.759 40.044C216.719 39.7127 216.769 39.3768 216.904 39.0715C217.039 38.7662 217.253 38.5027 217.525 38.3087C218.051 37.968 218.671 37.8002 219.297 37.8288C219.892 37.8007 220.484 37.9355 221.008 38.2188C221.505 38.5486 221.891 39.0184 222.119 39.5685L221.219 39.9884C221.067 39.6106 220.819 39.2795 220.498 39.0286C220.122 38.8568 219.71 38.7747 219.297 38.7886C218.246 38.7886 217.705 39.1486 217.705 39.8384C217.705 40.5283 218.126 40.6182 218.906 40.8582C220.288 41.2781 221.008 41.4881 221.098 41.5481C221.45 41.7103 221.743 41.9746 221.942 42.3064C222.14 42.6382 222.233 43.022 222.21 43.4077Z" fill="white"/>
<path d="M226.713 45.657H225.693V37.8887H226.713V45.657Z" fill="white"/>
<path d="M237.224 45.657H236.233V40.6481L234.371 45.657H233.5L231.639 40.6781V45.657H230.678V37.8887H231.488L233.951 44.1873L236.293 37.8887H237.224V45.657Z" fill="white"/>
<path d="M246.682 40.1086C246.705 40.4764 246.628 40.8435 246.459 41.1709C246.29 41.4983 246.035 41.7739 245.721 41.9682C245.203 42.2372 244.622 42.3615 244.04 42.3281H242.088V45.6574H241.127V37.8891H244.13C244.713 37.8557 245.293 37.9801 245.811 38.249C246.108 38.4544 246.345 38.7347 246.498 39.0614C246.651 39.3881 246.715 39.7494 246.682 40.1086ZM245.691 40.1086C245.712 39.9068 245.678 39.703 245.594 39.5185C245.509 39.3339 245.377 39.1753 245.211 39.0588C244.841 38.9028 244.441 38.8311 244.04 38.8489H242.088V41.3684H244.04C244.445 41.4087 244.854 41.3251 245.211 41.1284C245.38 41.0216 245.515 40.869 245.6 40.6884C245.685 40.5078 245.717 40.3066 245.691 40.1086Z" fill="white"/>
<path d="M254.67 45.657H250.075V37.8887H251.036V44.6972H254.67V45.657Z" fill="white"/>
<path d="M258.963 45.657H257.943V37.8887H258.963V45.657Z" fill="white"/>
<path d="M267.852 38.9984H263.888V41.3379H267.432V41.9978H263.888V45.567H262.897V37.8887H267.852V38.9984Z" fill="white"/>
<path d="M272.536 45.657H271.516V37.8887H272.536V45.657Z" fill="white"/>
<path d="M282.776 45.6576H281.515L281.155 45.2377C280.641 45.583 280.032 45.7611 279.413 45.7476C278.913 45.7707 278.416 45.6606 277.973 45.4287C277.53 45.1968 277.156 44.8514 276.891 44.4279C276.429 43.6276 276.21 42.7107 276.26 41.7884C276.206 40.8563 276.425 39.9286 276.891 39.119C277.163 38.6981 277.536 38.352 277.977 38.1123C278.418 37.8726 278.911 37.7471 279.413 37.7471C279.915 37.7471 280.408 37.8726 280.849 38.1123C281.29 38.352 281.663 38.6981 281.935 39.119C282.401 39.9286 282.62 40.8563 282.566 41.7884C282.63 42.7618 282.377 43.7296 281.845 44.5479L282.776 45.6576ZM281.575 41.7884C281.624 41.0507 281.468 40.3139 281.125 39.6589C280.935 39.3805 280.679 39.1527 280.381 38.9953C280.083 38.8379 279.75 38.7556 279.413 38.7556C279.076 38.7556 278.743 38.8379 278.445 38.9953C278.147 39.1527 277.892 39.3805 277.701 39.6589C277.358 40.3139 277.202 41.0507 277.251 41.7884C277.201 42.5166 277.358 43.244 277.701 43.888C277.882 44.1757 278.135 44.4106 278.436 44.5687C278.736 44.7267 279.074 44.8023 279.413 44.7878C279.796 44.8032 280.174 44.6983 280.494 44.4879C280.125 44.1953 279.673 44.0273 279.203 44.008V43.0482C279.928 43.0739 280.624 43.3374 281.185 43.798C281.489 43.1739 281.624 42.4809 281.575 41.7884Z" fill="white"/>
<path d="M291.935 42.3877C291.935 44.6372 291.004 45.747 288.933 45.747C286.861 45.747 285.93 44.6372 285.93 42.3877V37.8887H286.921V42.3877C286.869 42.9772 286.984 43.5693 287.251 44.0973C287.417 44.3442 287.648 44.5414 287.917 44.6681C288.187 44.7948 288.486 44.8463 288.782 44.8172C289.083 44.8487 289.387 44.7984 289.662 44.6717C289.937 44.545 290.173 44.3466 290.344 44.0973C290.596 43.5642 290.71 42.9762 290.674 42.3877V37.8887H291.635L291.935 42.3877Z" fill="white"/>
<path d="M300.853 45.657H295.778V37.8887H300.853V38.9984H296.769V41.3679H300.283V41.9978H296.769V44.6072H300.853V45.657Z" fill="white"/>
<path d="M124.078 13.2341H123.117C122.974 13.2314 122.833 13.2732 122.715 13.3538C122.596 13.4344 122.506 13.5498 122.456 13.684L117.682 25.4414L113.087 13.684C113.029 13.5498 112.932 13.4358 112.809 13.3558C112.687 13.2759 112.543 13.2336 112.397 13.2341H111.316C111.199 13.2341 111.084 13.2612 110.98 13.3132C110.876 13.3653 110.785 13.4409 110.715 13.534C110.657 13.6398 110.627 13.7584 110.627 13.8789C110.627 13.9995 110.657 14.1181 110.715 14.2239L116.721 29.4006C116.779 29.5347 116.876 29.6488 116.999 29.7287C117.121 29.8087 117.265 29.851 117.411 29.8505H118.162C118.304 29.849 118.443 29.8055 118.561 29.7254C118.678 29.6454 118.769 29.5324 118.823 29.4006L124.828 14.2239C124.881 14.1166 124.909 13.9986 124.909 13.8789C124.909 13.7593 124.881 13.6413 124.828 13.534C124.743 13.4203 124.627 13.3323 124.495 13.2794C124.363 13.2265 124.218 13.2109 124.078 13.2341Z" fill="white"/>
<path d="M169.421 21.9623C168.926 21.5708 168.38 21.2479 167.799 21.0025C167.198 20.7626 166.538 20.5226 165.817 20.3126L164.406 19.8328C164.039 19.6823 163.695 19.4803 163.385 19.2329C163.131 19.0596 162.916 18.8348 162.754 18.573C162.628 18.3113 162.567 18.0235 162.574 17.7332C162.559 17.4314 162.611 17.1301 162.725 16.8502C162.839 16.5704 163.013 16.319 163.235 16.1136C163.839 15.6389 164.602 15.4134 165.367 15.4837C166.077 15.4682 166.783 15.601 167.439 15.8736C167.986 16.1225 168.447 16.53 168.76 17.0433C168.886 17.2041 169.068 17.3112 169.27 17.3433C169.444 17.4133 169.638 17.4133 169.811 17.3433L170.562 16.7134C170.688 16.5797 170.759 16.4026 170.759 16.2185C170.759 16.0344 170.688 15.8573 170.562 15.7236C169.953 14.8994 169.148 14.2401 168.22 13.8053C167.292 13.3706 166.27 13.1743 165.247 13.2342C164.513 13.2272 163.783 13.3386 163.085 13.5641C162.472 13.7778 161.91 14.1146 161.433 14.5539C160.964 14.9538 160.594 15.4569 160.352 16.0236C160.109 16.6131 159.986 17.2455 159.992 17.8832C159.988 18.5592 160.142 19.2267 160.442 19.8328C160.739 20.373 161.136 20.8515 161.613 21.2424C162.109 21.6484 162.666 21.9724 163.265 22.2022C163.864 22.4702 164.487 22.681 165.126 22.8321C166.034 23.0687 166.897 23.4538 167.679 23.9719C167.913 24.1345 168.101 24.356 168.222 24.614C168.343 24.8721 168.394 25.1575 168.37 25.4415C168.379 25.7483 168.319 26.0532 168.195 26.3337C168.07 26.6141 167.883 26.8628 167.649 27.0612C167.173 27.3896 166.63 27.6106 166.06 27.709C165.49 27.8074 164.905 27.7808 164.346 27.6311C163.988 27.573 163.636 27.4826 163.295 27.3611C162.967 27.2376 162.655 27.0766 162.364 26.8812C162.111 26.7187 161.896 26.504 161.733 26.2514C161.676 26.1667 161.6 26.0959 161.512 26.044C161.424 25.9921 161.325 25.9605 161.223 25.9514C161.02 25.925 160.815 25.9788 160.652 26.1014L159.902 26.7313C159.781 26.8681 159.715 27.044 159.715 27.2262C159.715 27.4083 159.781 27.5842 159.902 27.7211C160.537 28.5666 161.402 29.212 162.394 29.5807C163.35 29.957 164.369 30.1503 165.397 30.1505C166.818 30.2275 168.219 29.7791 169.33 28.8908C169.821 28.4647 170.209 27.9328 170.463 27.3353C170.718 26.7378 170.834 26.0902 170.802 25.4415C170.824 24.78 170.69 24.1225 170.411 23.522C170.192 22.9396 169.855 22.4087 169.421 21.9623Z" fill="white"/>
<path d="M189.419 15.5137C188.801 14.7284 187.996 14.1098 187.077 13.7141C186.054 13.2728 184.948 13.0579 183.834 13.0843C182.73 13.0575 181.633 13.2725 180.621 13.7141C179.709 14.1202 178.906 14.737 178.279 15.5137C177.653 16.3145 177.193 17.2323 176.927 18.2132C176.642 19.2997 176.5 20.4191 176.507 21.5424C176.501 22.6757 176.642 23.8049 176.927 24.9017C177.193 25.8825 177.653 26.8003 178.279 27.6011C178.915 28.3606 179.716 28.9657 180.621 29.3708C181.633 29.8124 182.73 30.0274 183.834 30.0006C184.948 30.027 186.054 29.8121 187.077 29.3708C187.986 28.9732 188.789 28.3669 189.419 27.6011C190.066 26.8095 190.537 25.8893 190.801 24.9017C191.086 23.8049 191.227 22.6757 191.221 21.5424C191.228 20.4191 191.086 19.2997 190.801 18.2132C190.537 17.2256 190.066 16.3054 189.419 15.5137ZM183.834 27.5112C183.09 27.5403 182.35 27.3966 181.672 27.0912C181.087 26.823 180.573 26.4225 180.171 25.9215C179.725 25.3601 179.417 24.7029 179.27 24.0019C179.045 23.1709 178.934 22.3133 178.939 21.4525C178.936 20.5918 179.047 19.7345 179.27 18.903C179.447 18.249 179.753 17.6371 180.171 17.1034C180.554 16.5951 181.06 16.1925 181.642 15.9336C182.317 15.617 183.058 15.4629 183.804 15.4837C184.559 15.4637 185.31 15.6176 185.996 15.9336C186.582 16.1999 187.096 16.6008 187.497 17.1034C187.922 17.6665 188.228 18.3091 188.398 18.993C188.635 19.8215 188.747 20.6809 188.729 21.5424C188.749 22.4041 188.638 23.2638 188.398 24.0919C188.228 24.7758 187.922 25.4184 187.497 25.9815C187.101 26.4892 186.585 26.8911 185.996 27.1512C185.316 27.4524 184.577 27.596 183.834 27.5711V27.5112Z" fill="white"/>
<path d="M206.625 13.2344H197.887C197.696 13.2344 197.512 13.3102 197.377 13.4452C197.242 13.5802 197.166 13.7633 197.166 13.9542V29.131C197.166 29.3219 197.242 29.505 197.377 29.64C197.512 29.775 197.696 29.8508 197.887 29.8508H198.908C199.099 29.8508 199.282 29.775 199.417 29.64C199.552 29.505 199.628 29.3219 199.628 29.131V22.7123H203.802C203.897 22.7123 203.991 22.6937 204.078 22.6575C204.165 22.6214 204.245 22.5683 204.312 22.5015C204.379 22.4347 204.432 22.3553 204.468 22.268C204.504 22.1806 204.523 22.087 204.523 21.9925V21.0027C204.523 20.8118 204.447 20.6287 204.312 20.4937C204.177 20.3587 203.993 20.2829 203.802 20.2829H199.628V16.2637C199.628 16.2637 204.072 15.9638 206.625 15.6339C206.801 15.6352 206.972 15.5719 207.105 15.4558C207.238 15.3397 207.324 15.1789 207.346 15.004V13.9542C207.346 13.7633 207.27 13.5802 207.135 13.4452C206.999 13.3102 206.816 13.2344 206.625 13.2344Z" fill="white"/>
<path d="M223.891 13.2344H212.511C212.32 13.2344 212.136 13.3102 212.001 13.4452C211.866 13.5802 211.79 13.7633 211.79 13.9542V15.004C211.797 15.1925 211.876 15.3714 212.009 15.5048C212.143 15.6382 212.322 15.7164 212.511 15.7238C213.922 15.9638 216.985 16.3537 216.985 16.3537V29.131C216.985 29.3219 217.061 29.505 217.196 29.64C217.331 29.775 217.514 29.8508 217.706 29.8508H218.697C218.888 29.8508 219.071 29.775 219.206 29.64C219.341 29.505 219.417 29.3219 219.417 29.131V16.2637C219.417 16.2637 220.348 16.2637 223.891 15.6339C224.066 15.6291 224.234 15.5636 224.365 15.4486C224.497 15.3336 224.584 15.1764 224.612 15.004V13.9542C224.612 13.7633 224.536 13.5802 224.401 13.4452C224.266 13.3102 224.083 13.2344 223.891 13.2344Z" fill="white"/>
<path d="M247.583 13.2341H246.532C246.379 13.2383 246.23 13.2894 246.107 13.3806C245.983 13.4718 245.891 13.5986 245.842 13.7439C245.211 15.9035 244.581 18.153 243.92 20.4025L242.539 25.1415V24.8716C242.268 24.1817 241.998 23.4919 241.698 22.862L240.737 21.0024C240.496 20.3069 240.215 19.6259 239.896 18.9628C239.896 18.6629 239.566 18.333 239.175 18.333H238.185C238.025 18.3457 237.873 18.4072 237.749 18.5091C237.626 18.6111 237.536 18.7485 237.494 18.9028L234.851 25.2915L231.518 13.7439C231.469 13.5986 231.377 13.4718 231.253 13.3806C231.13 13.2894 230.981 13.2383 230.828 13.2341H229.777C229.663 13.2282 229.55 13.2529 229.45 13.3057C229.35 13.3585 229.265 13.4374 229.206 13.534C229.154 13.6307 229.126 13.7389 229.126 13.8489C229.126 13.9589 229.154 14.0672 229.206 14.1639L233.71 29.3406C233.716 29.4899 233.769 29.6336 233.86 29.7519C233.952 29.8701 234.078 29.957 234.221 30.0005H235.002C235.143 29.9953 235.28 29.9503 235.397 29.8707C235.514 29.7911 235.606 29.6801 235.662 29.5505C236.233 28.1409 236.863 26.5512 237.464 25.1715L238.635 22.3521L241.638 29.5505C241.694 29.6801 241.786 29.7911 241.903 29.8707C242.02 29.9503 242.157 29.9953 242.298 30.0005H243.229C243.384 30.0007 243.535 29.9513 243.659 29.8595C243.783 29.7677 243.875 29.6383 243.92 29.4906L248.424 14.3138C248.477 14.2172 248.504 14.1089 248.504 13.9989C248.504 13.8889 248.477 13.7806 248.424 13.684C248.369 13.5154 248.251 13.3745 248.094 13.2907C247.937 13.207 247.755 13.1867 247.583 13.2341Z" fill="white"/>
<path d="M300.283 15.6339C300.378 15.6339 300.471 15.6152 300.559 15.5791C300.646 15.5429 300.726 15.4899 300.793 15.423C300.86 15.3562 300.913 15.2768 300.949 15.1895C300.985 15.1022 301.004 15.0085 301.004 14.914V13.9542C301.004 13.7633 300.928 13.5802 300.793 13.4452C300.658 13.3102 300.474 13.2344 300.283 13.2344H291.275C291.083 13.2344 290.9 13.3102 290.765 13.4452C290.63 13.5802 290.554 13.7633 290.554 13.9542V29.131C290.531 29.2372 290.533 29.3472 290.559 29.4526C290.585 29.5581 290.634 29.6564 290.704 29.7401C290.773 29.8237 290.86 29.8906 290.959 29.9358C291.058 29.9809 291.166 30.0032 291.275 30.0008H300.283C300.474 30.0008 300.658 29.9249 300.793 29.7899C300.928 29.6549 301.004 29.4718 301.004 29.2809V28.1412C300.99 27.9549 300.91 27.7797 300.777 27.6476C300.645 27.5155 300.47 27.4352 300.283 27.4213C297.851 27.1514 293.256 26.7915 293.256 26.7915V22.7123H297.28C297.471 22.7123 297.655 22.6365 297.79 22.5015C297.925 22.3665 298.001 22.1834 298.001 21.9925V21.0027C297.993 20.817 297.914 20.6416 297.78 20.513C297.645 20.3844 297.466 20.3127 297.28 20.3129H293.106V16.2637C293.106 16.2637 298.121 15.9038 300.283 15.6339Z" fill="white"/>
<path d="M260.254 13.6843C260.201 13.5525 260.11 13.4395 259.992 13.3594C259.875 13.2794 259.736 13.2359 259.594 13.2344H258.843C258.697 13.2339 258.553 13.2762 258.43 13.3561C258.308 13.4361 258.211 13.5502 258.153 13.6843L252.237 28.861C252.179 28.9613 252.148 29.0751 252.148 29.1909C252.148 29.3068 252.179 29.4206 252.237 29.5209C252.3 29.6233 252.388 29.7076 252.493 29.7655C252.599 29.8234 252.717 29.8528 252.837 29.8508H253.919C254.065 29.8513 254.209 29.809 254.331 29.729C254.454 29.6491 254.551 29.535 254.609 29.4009L259.203 17.4035L261.666 24.0021L263.828 29.4909C263.878 29.625 263.968 29.7404 264.086 29.821C264.205 29.9016 264.345 29.9435 264.488 29.9408H265.6C265.719 29.9399 265.837 29.9093 265.942 29.8517C266.046 29.7941 266.135 29.7113 266.2 29.6109C266.253 29.5088 266.28 29.3957 266.28 29.2809C266.28 29.1661 266.253 29.053 266.2 28.951L260.254 13.6843Z" fill="white"/>
<path d="M281.425 23.5817C282.072 23.2239 282.627 22.7207 283.046 22.112C283.643 21.1187 283.925 19.9689 283.857 18.8127C283.889 18.0372 283.765 17.2632 283.491 16.5367C283.218 15.8101 282.801 15.146 282.266 14.5836C281.041 13.572 279.464 13.0866 277.881 13.2339H274.879C273.377 13.2339 272.446 14.0437 272.446 16.2333V29.1305C272.421 29.2447 272.423 29.3635 272.454 29.4765C272.484 29.5895 272.542 29.6934 272.622 29.779C272.702 29.8647 272.801 29.9297 272.912 29.9682C273.023 30.0068 273.141 30.0178 273.257 30.0003H274.248C274.439 30.0003 274.622 29.9245 274.758 29.7895C274.893 29.6545 274.969 29.4714 274.969 29.2805V16.6232C274.969 15.8733 275.209 15.6034 275.809 15.6034H278.122C279.039 15.5105 279.96 15.7327 280.734 16.2333C281.053 16.5769 281.293 16.9855 281.438 17.4308C281.583 17.8761 281.63 18.3476 281.575 18.8127C281.599 19.4199 281.486 20.0247 281.245 20.5823C281.032 20.9838 280.709 21.3167 280.314 21.5421C279.816 21.8009 279.278 21.9733 278.722 22.052C278.178 22.1701 277.626 22.2503 277.071 22.292C276.62 22.292 276.71 22.8918 276.77 23.1018L277.041 24.0616C277.041 24.3915 277.221 24.6614 277.881 24.6015C278.542 24.5415 278.602 24.6015 279.233 24.3915L281.755 29.4604C281.78 29.5897 281.841 29.7092 281.931 29.8048C282.022 29.9005 282.138 29.9683 282.266 30.0003H283.437C283.557 30.0023 283.675 29.9729 283.781 29.915C283.886 29.8571 283.974 29.7728 284.037 29.6704C284.098 29.56 284.129 29.4362 284.129 29.3104C284.129 29.1847 284.098 29.0609 284.037 28.9505L281.425 23.5817Z" fill="white"/>
<path d="M139.422 23.5822C140.098 23.2303 140.684 22.7274 141.134 22.1125C141.74 21.1225 142.033 19.9724 141.974 18.8132C142.022 18.0412 141.91 17.2678 141.647 16.5404C141.383 15.8131 140.974 15.1474 140.443 14.5841C139.226 13.58 137.661 13.0952 136.089 13.2344H132.816C131.284 13.2344 130.354 14.0442 130.354 16.2337V29.131C130.354 29.3219 130.429 29.505 130.565 29.64C130.7 29.775 130.883 29.8508 131.074 29.8508H132.125C132.316 29.8508 132.5 29.775 132.635 29.64C132.77 29.505 132.846 29.3219 132.846 29.131V16.6236C132.846 15.8738 133.086 15.6039 133.657 15.6039H135.969C136.895 15.5113 137.826 15.7332 138.611 16.2337C138.918 16.5841 139.148 16.9944 139.288 17.4384C139.427 17.8824 139.473 18.3506 139.422 18.8132C139.446 19.4203 139.333 20.0252 139.092 20.5828C138.879 20.9843 138.556 21.3172 138.161 21.5426C137.667 21.8102 137.127 21.9832 136.569 22.0525C136.035 22.1721 135.494 22.2523 134.948 22.2924C134.467 22.2924 134.557 22.8923 134.618 23.1023L134.888 24.062C134.888 24.392 135.098 24.6619 135.729 24.6019C136.359 24.5419 136.479 24.6019 137.08 24.392L139.602 29.4609C139.664 29.5814 139.759 29.682 139.876 29.751C139.993 29.82 140.127 29.8546 140.263 29.8508H141.404C141.527 29.8491 141.647 29.8161 141.753 29.755C141.86 29.6938 141.949 29.6065 142.012 29.5014C142.075 29.3962 142.11 29.2767 142.114 29.1541C142.118 29.0316 142.091 28.91 142.035 28.801L139.422 23.5822Z" fill="white"/>
<path d="M52.2501 58.8546L96.0914 43.4379C100.205 41.7883 100.926 40.1086 100.205 35.7596L92.8484 11.2848C92.6133 9.89194 91.8688 8.63588 90.7591 7.76026C89.6494 6.88464 88.2537 6.45185 86.8427 6.54584L22.6723 10.505C20.4502 10.505 19.4593 11.8847 20.3001 13.9243L36.6955 51.8961C40.0587 59.4245 44.2326 61.614 52.2501 58.8546Z" fill="url(#paint0_linear_8438_227088)"/>
<path d="M17.7771 8.16527L15.0145 1.56669C14.7665 1.14764 14.4272 0.78981 14.0217 0.51979C13.6162 0.24977 13.155 0.0745059 12.6723 0.0070253H2.40265C2.00974 -0.0242727 1.61556 0.0493821 1.26055 0.220436C0.905543 0.391489 0.602472 0.653785 0.382425 0.980422C0.162377 1.30706 0.033273 1.68628 0.00835255 2.0792C-0.0165679 2.47211 0.0635926 2.86457 0.240613 3.21634L3.00321 9.75493C3.17584 10.2758 3.51788 10.7241 3.97494 11.0284C4.432 11.3328 4.97782 11.4757 5.52559 11.4346L16.2457 10.7747C18.0173 10.6547 18.4077 9.60496 17.7771 8.16527Z" fill="url(#paint1_linear_8438_227088)"/>
<path d="M97.0219 43.078C100.415 41.5483 100.986 39.8087 100.325 35.7596L92.848 11.2848C92.613 9.89194 91.8684 8.63588 90.7587 7.76026C89.6491 6.88464 88.2534 6.45185 86.8424 6.54584L60.7178 8.1355C74.2318 18.2239 86.428 29.9627 97.0219 43.078Z" fill="url(#paint2_linear_8438_227088)"/>
</g>
<g clip-path="url(#clip1_8438_227088)">
<path d="M222.21 43.4077C222.213 43.7459 222.136 44.08 221.985 44.3826C221.833 44.6851 221.612 44.9472 221.339 45.1473C220.786 45.5622 220.108 45.7741 219.417 45.7471C218.702 45.8152 217.989 45.6028 217.429 45.1549C216.868 44.7071 216.504 44.0589 216.414 43.3477L217.405 43.1677C217.427 43.4181 217.499 43.6616 217.618 43.8832C217.737 44.1049 217.899 44.3002 218.096 44.4574C218.525 44.6997 219.015 44.8142 219.507 44.7874C219.94 44.7964 220.367 44.682 220.738 44.4574C220.919 44.3498 221.067 44.1955 221.168 44.0108C221.268 43.826 221.317 43.6177 221.309 43.4077C221.309 42.8378 220.918 42.4179 220.138 42.1779L217.915 41.5481C217.605 41.424 217.334 41.2189 217.131 40.9543C216.928 40.6897 216.799 40.3752 216.759 40.044C216.719 39.7127 216.769 39.3768 216.904 39.0715C217.039 38.7662 217.253 38.5027 217.525 38.3087C218.051 37.968 218.671 37.8002 219.297 37.8288C219.892 37.8007 220.484 37.9355 221.008 38.2188C221.505 38.5486 221.891 39.0184 222.119 39.5685L221.219 39.9884C221.067 39.6106 220.819 39.2795 220.498 39.0286C220.122 38.8568 219.71 38.7747 219.297 38.7886C218.246 38.7886 217.705 39.1486 217.705 39.8384C217.705 40.5283 218.126 40.6182 218.906 40.8582C220.288 41.2781 221.008 41.4881 221.098 41.5481C221.45 41.7103 221.743 41.9746 221.942 42.3064C222.14 42.6382 222.233 43.022 222.21 43.4077Z" fill="#37474F"/>
<path d="M226.713 45.657H225.693V37.8887H226.713V45.657Z" fill="#37474F"/>
<path d="M237.224 45.657H236.233V40.6481L234.371 45.657H233.5L231.639 40.6781V45.657H230.678V37.8887H231.488L233.951 44.1873L236.293 37.8887H237.224V45.657Z" fill="#37474F"/>
<path d="M246.682 40.1086C246.705 40.4764 246.628 40.8435 246.459 41.1709C246.29 41.4983 246.035 41.7739 245.721 41.9682C245.203 42.2372 244.622 42.3615 244.04 42.3281H242.088V45.6574H241.127V37.8891H244.13C244.713 37.8557 245.293 37.9801 245.811 38.249C246.108 38.4544 246.345 38.7347 246.498 39.0614C246.651 39.3881 246.715 39.7494 246.682 40.1086ZM245.691 40.1086C245.712 39.9068 245.678 39.703 245.594 39.5185C245.509 39.3339 245.377 39.1753 245.211 39.0588C244.841 38.9028 244.441 38.8311 244.04 38.8489H242.088V41.3684H244.04C244.445 41.4087 244.854 41.3251 245.211 41.1284C245.38 41.0216 245.515 40.869 245.6 40.6884C245.685 40.5078 245.717 40.3066 245.691 40.1086Z" fill="#37474F"/>
<path d="M254.67 45.657H250.075V37.8887H251.036V44.6972H254.67V45.657Z" fill="#37474F"/>
<path d="M258.963 45.657H257.943V37.8887H258.963V45.657Z" fill="#37474F"/>
<path d="M267.852 38.9984H263.888V41.3379H267.432V41.9978H263.888V45.567H262.897V37.8887H267.852V38.9984Z" fill="#37474F"/>
<path d="M272.536 45.657H271.516V37.8887H272.536V45.657Z" fill="#37474F"/>
<path d="M282.776 45.6576H281.515L281.155 45.2377C280.641 45.583 280.032 45.7611 279.413 45.7476C278.913 45.7707 278.416 45.6606 277.973 45.4287C277.53 45.1968 277.156 44.8514 276.891 44.4279C276.429 43.6276 276.21 42.7107 276.26 41.7884C276.206 40.8563 276.425 39.9286 276.891 39.119C277.163 38.6981 277.536 38.352 277.977 38.1123C278.418 37.8726 278.911 37.7471 279.413 37.7471C279.915 37.7471 280.408 37.8726 280.849 38.1123C281.29 38.352 281.663 38.6981 281.935 39.119C282.401 39.9286 282.62 40.8563 282.566 41.7884C282.63 42.7618 282.377 43.7296 281.845 44.5479L282.776 45.6576ZM281.575 41.7884C281.624 41.0507 281.468 40.3139 281.125 39.6589C280.935 39.3805 280.679 39.1527 280.381 38.9953C280.083 38.8379 279.75 38.7556 279.413 38.7556C279.076 38.7556 278.743 38.8379 278.445 38.9953C278.147 39.1527 277.892 39.3805 277.701 39.6589C277.358 40.3139 277.202 41.0507 277.251 41.7884C277.201 42.5166 277.358 43.244 277.701 43.888C277.882 44.1757 278.135 44.4106 278.436 44.5687C278.736 44.7267 279.074 44.8023 279.413 44.7878C279.796 44.8032 280.174 44.6983 280.494 44.4879C280.125 44.1953 279.673 44.0273 279.203 44.008V43.0482C279.928 43.0739 280.624 43.3374 281.185 43.798C281.489 43.1739 281.624 42.4809 281.575 41.7884Z" fill="#37474F"/>
<path d="M291.935 42.3877C291.935 44.6372 291.004 45.747 288.933 45.747C286.861 45.747 285.93 44.6372 285.93 42.3877V37.8887H286.921V42.3877C286.869 42.9772 286.984 43.5693 287.251 44.0973C287.417 44.3442 287.648 44.5414 287.917 44.6681C288.187 44.7948 288.486 44.8463 288.782 44.8172C289.083 44.8487 289.387 44.7984 289.662 44.6717C289.937 44.545 290.173 44.3466 290.344 44.0973C290.596 43.5642 290.71 42.9762 290.674 42.3877V37.8887H291.635L291.935 42.3877Z" fill="#37474F"/>
<path d="M300.853 45.657H295.778V37.8887H300.853V38.9984H296.769V41.3679H300.283V41.9978H296.769V44.6072H300.853V45.657Z" fill="#37474F"/>
<path d="M124.078 13.2341H123.117C122.974 13.2314 122.833 13.2732 122.715 13.3538C122.596 13.4344 122.506 13.5498 122.456 13.684L117.682 25.4414L113.087 13.684C113.029 13.5498 112.932 13.4358 112.809 13.3558C112.687 13.2759 112.543 13.2336 112.397 13.2341H111.316C111.199 13.2341 111.084 13.2612 110.98 13.3132C110.876 13.3653 110.785 13.4409 110.715 13.534C110.657 13.6398 110.627 13.7584 110.627 13.8789C110.627 13.9995 110.657 14.1181 110.715 14.2239L116.721 29.4006C116.779 29.5347 116.876 29.6488 116.999 29.7287C117.121 29.8087 117.265 29.851 117.411 29.8505H118.162C118.304 29.849 118.443 29.8055 118.561 29.7254C118.678 29.6454 118.769 29.5324 118.823 29.4006L124.828 14.2239C124.881 14.1166 124.909 13.9986 124.909 13.8789C124.909 13.7593 124.881 13.6413 124.828 13.534C124.743 13.4203 124.627 13.3323 124.495 13.2794C124.363 13.2265 124.218 13.2109 124.078 13.2341Z" fill="#37474F"/>
<path d="M169.421 21.9623C168.926 21.5708 168.38 21.2479 167.799 21.0025C167.198 20.7626 166.538 20.5226 165.817 20.3126L164.406 19.8328C164.039 19.6823 163.695 19.4803 163.385 19.2329C163.131 19.0596 162.916 18.8348 162.754 18.573C162.628 18.3113 162.567 18.0235 162.574 17.7332C162.559 17.4314 162.611 17.1301 162.725 16.8502C162.839 16.5704 163.013 16.319 163.235 16.1136C163.839 15.6389 164.602 15.4134 165.367 15.4837C166.077 15.4682 166.783 15.601 167.439 15.8736C167.986 16.1225 168.447 16.53 168.76 17.0433C168.886 17.2041 169.068 17.3112 169.27 17.3433C169.444 17.4133 169.638 17.4133 169.811 17.3433L170.562 16.7134C170.688 16.5797 170.759 16.4026 170.759 16.2185C170.759 16.0344 170.688 15.8573 170.562 15.7236C169.953 14.8994 169.148 14.2401 168.22 13.8053C167.292 13.3706 166.27 13.1743 165.247 13.2342C164.513 13.2272 163.783 13.3386 163.085 13.5641C162.472 13.7778 161.91 14.1146 161.433 14.5539C160.964 14.9538 160.594 15.4569 160.352 16.0236C160.109 16.6131 159.986 17.2455 159.992 17.8832C159.988 18.5592 160.142 19.2267 160.442 19.8328C160.739 20.373 161.136 20.8515 161.613 21.2424C162.109 21.6484 162.666 21.9724 163.265 22.2022C163.864 22.4702 164.487 22.681 165.126 22.8321C166.034 23.0687 166.897 23.4538 167.679 23.9719C167.913 24.1345 168.101 24.356 168.222 24.614C168.343 24.8721 168.394 25.1575 168.37 25.4415C168.379 25.7483 168.319 26.0532 168.195 26.3337C168.07 26.6141 167.883 26.8628 167.649 27.0612C167.173 27.3896 166.63 27.6106 166.06 27.709C165.49 27.8074 164.905 27.7808 164.346 27.6311C163.988 27.573 163.636 27.4826 163.295 27.3611C162.967 27.2376 162.655 27.0766 162.364 26.8812C162.111 26.7187 161.896 26.504 161.733 26.2514C161.676 26.1667 161.6 26.0959 161.512 26.044C161.424 25.9921 161.325 25.9605 161.223 25.9514C161.02 25.925 160.815 25.9788 160.652 26.1014L159.902 26.7313C159.781 26.8681 159.715 27.044 159.715 27.2262C159.715 27.4083 159.781 27.5842 159.902 27.7211C160.537 28.5666 161.402 29.212 162.394 29.5807C163.35 29.957 164.369 30.1503 165.397 30.1505C166.818 30.2275 168.219 29.7791 169.33 28.8908C169.821 28.4647 170.209 27.9328 170.463 27.3353C170.718 26.7378 170.834 26.0902 170.802 25.4415C170.824 24.78 170.69 24.1225 170.411 23.522C170.192 22.9396 169.855 22.4087 169.421 21.9623Z" fill="#37474F"/>
<path d="M189.419 15.5137C188.801 14.7284 187.996 14.1098 187.077 13.7141C186.054 13.2728 184.948 13.0579 183.834 13.0843C182.73 13.0575 181.633 13.2725 180.621 13.7141C179.709 14.1202 178.906 14.737 178.279 15.5137C177.653 16.3145 177.193 17.2323 176.927 18.2132C176.642 19.2997 176.5 20.4191 176.507 21.5424C176.501 22.6757 176.642 23.8049 176.927 24.9017C177.193 25.8825 177.653 26.8003 178.279 27.6011C178.915 28.3606 179.716 28.9657 180.621 29.3708C181.633 29.8124 182.73 30.0274 183.834 30.0006C184.948 30.027 186.054 29.8121 187.077 29.3708C187.986 28.9732 188.789 28.3669 189.419 27.6011C190.066 26.8095 190.537 25.8893 190.801 24.9017C191.086 23.8049 191.227 22.6757 191.221 21.5424C191.228 20.4191 191.086 19.2997 190.801 18.2132C190.537 17.2256 190.066 16.3054 189.419 15.5137ZM183.834 27.5112C183.09 27.5403 182.35 27.3966 181.672 27.0912C181.087 26.823 180.573 26.4225 180.171 25.9215C179.725 25.3601 179.417 24.7029 179.27 24.0019C179.045 23.1709 178.934 22.3133 178.939 21.4525C178.936 20.5918 179.047 19.7345 179.27 18.903C179.447 18.249 179.753 17.6371 180.171 17.1034C180.554 16.5951 181.06 16.1925 181.642 15.9336C182.317 15.617 183.058 15.4629 183.804 15.4837C184.559 15.4637 185.31 15.6176 185.996 15.9336C186.582 16.1999 187.096 16.6008 187.497 17.1034C187.922 17.6665 188.228 18.3091 188.398 18.993C188.635 19.8215 188.747 20.6809 188.729 21.5424C188.749 22.4041 188.638 23.2638 188.398 24.0919C188.228 24.7758 187.922 25.4184 187.497 25.9815C187.101 26.4892 186.585 26.8911 185.996 27.1512C185.316 27.4524 184.577 27.596 183.834 27.5711V27.5112Z" fill="#37474F"/>
<path d="M206.625 13.2344H197.887C197.696 13.2344 197.512 13.3102 197.377 13.4452C197.242 13.5802 197.166 13.7633 197.166 13.9542V29.131C197.166 29.3219 197.242 29.505 197.377 29.64C197.512 29.775 197.696 29.8508 197.887 29.8508H198.908C199.099 29.8508 199.282 29.775 199.417 29.64C199.552 29.505 199.628 29.3219 199.628 29.131V22.7123H203.802C203.897 22.7123 203.991 22.6937 204.078 22.6575C204.165 22.6214 204.245 22.5683 204.312 22.5015C204.379 22.4347 204.432 22.3553 204.468 22.268C204.504 22.1806 204.523 22.087 204.523 21.9925V21.0027C204.523 20.8118 204.447 20.6287 204.312 20.4937C204.177 20.3587 203.993 20.2829 203.802 20.2829H199.628V16.2637C199.628 16.2637 204.072 15.9638 206.625 15.6339C206.801 15.6352 206.972 15.5719 207.105 15.4558C207.238 15.3397 207.324 15.1789 207.346 15.004V13.9542C207.346 13.7633 207.27 13.5802 207.135 13.4452C206.999 13.3102 206.816 13.2344 206.625 13.2344Z" fill="#37474F"/>
<path d="M223.891 13.2344H212.511C212.32 13.2344 212.136 13.3102 212.001 13.4452C211.866 13.5802 211.79 13.7633 211.79 13.9542V15.004C211.797 15.1925 211.876 15.3714 212.009 15.5048C212.143 15.6382 212.322 15.7164 212.511 15.7238C213.922 15.9638 216.985 16.3537 216.985 16.3537V29.131C216.985 29.3219 217.061 29.505 217.196 29.64C217.331 29.775 217.514 29.8508 217.706 29.8508H218.697C218.888 29.8508 219.071 29.775 219.206 29.64C219.341 29.505 219.417 29.3219 219.417 29.131V16.2637C219.417 16.2637 220.348 16.2637 223.891 15.6339C224.066 15.6291 224.234 15.5636 224.365 15.4486C224.497 15.3336 224.584 15.1764 224.612 15.004V13.9542C224.612 13.7633 224.536 13.5802 224.401 13.4452C224.266 13.3102 224.083 13.2344 223.891 13.2344Z" fill="#37474F"/>
<path d="M247.583 13.2341H246.532C246.379 13.2383 246.23 13.2894 246.107 13.3806C245.983 13.4718 245.891 13.5986 245.842 13.7439C245.211 15.9035 244.581 18.153 243.92 20.4025L242.539 25.1415V24.8716C242.268 24.1817 241.998 23.4919 241.698 22.862L240.737 21.0024C240.496 20.3069 240.215 19.6259 239.896 18.9628C239.896 18.6629 239.566 18.333 239.175 18.333H238.185C238.025 18.3457 237.873 18.4072 237.749 18.5091C237.626 18.6111 237.536 18.7485 237.494 18.9028L234.851 25.2915L231.518 13.7439C231.469 13.5986 231.377 13.4718 231.253 13.3806C231.13 13.2894 230.981 13.2383 230.828 13.2341H229.777C229.663 13.2282 229.55 13.2529 229.45 13.3057C229.35 13.3585 229.265 13.4374 229.206 13.534C229.154 13.6307 229.126 13.7389 229.126 13.8489C229.126 13.9589 229.154 14.0672 229.206 14.1639L233.71 29.3406C233.716 29.4899 233.769 29.6336 233.86 29.7519C233.952 29.8701 234.078 29.957 234.221 30.0005H235.002C235.143 29.9953 235.28 29.9503 235.397 29.8707C235.514 29.7911 235.606 29.6801 235.662 29.5505C236.233 28.1409 236.863 26.5512 237.464 25.1715L238.635 22.3521L241.638 29.5505C241.694 29.6801 241.786 29.7911 241.903 29.8707C242.02 29.9503 242.157 29.9953 242.298 30.0005H243.229C243.384 30.0007 243.535 29.9513 243.659 29.8595C243.783 29.7677 243.875 29.6383 243.92 29.4906L248.424 14.3138C248.477 14.2172 248.504 14.1089 248.504 13.9989C248.504 13.8889 248.477 13.7806 248.424 13.684C248.369 13.5154 248.251 13.3745 248.094 13.2907C247.937 13.207 247.755 13.1867 247.583 13.2341Z" fill="#37474F"/>
<path d="M300.283 15.6339C300.378 15.6339 300.471 15.6152 300.559 15.5791C300.646 15.5429 300.726 15.4899 300.793 15.423C300.86 15.3562 300.913 15.2768 300.949 15.1895C300.985 15.1022 301.004 15.0085 301.004 14.914V13.9542C301.004 13.7633 300.928 13.5802 300.793 13.4452C300.658 13.3102 300.474 13.2344 300.283 13.2344H291.275C291.083 13.2344 290.9 13.3102 290.765 13.4452C290.63 13.5802 290.554 13.7633 290.554 13.9542V29.131C290.531 29.2372 290.533 29.3472 290.559 29.4526C290.585 29.5581 290.634 29.6564 290.704 29.7401C290.773 29.8237 290.86 29.8906 290.959 29.9358C291.058 29.9809 291.166 30.0032 291.275 30.0008H300.283C300.474 30.0008 300.658 29.9249 300.793 29.7899C300.928 29.6549 301.004 29.4718 301.004 29.2809V28.1412C300.99 27.9549 300.91 27.7797 300.777 27.6476C300.645 27.5155 300.47 27.4352 300.283 27.4213C297.851 27.1514 293.256 26.7915 293.256 26.7915V22.7123H297.28C297.471 22.7123 297.655 22.6365 297.79 22.5015C297.925 22.3665 298.001 22.1834 298.001 21.9925V21.0027C297.993 20.817 297.914 20.6416 297.78 20.513C297.645 20.3844 297.466 20.3127 297.28 20.3129H293.106V16.2637C293.106 16.2637 298.121 15.9038 300.283 15.6339Z" fill="#37474F"/>
<path d="M260.254 13.6843C260.201 13.5525 260.11 13.4395 259.992 13.3594C259.875 13.2794 259.736 13.2359 259.594 13.2344H258.843C258.697 13.2339 258.553 13.2762 258.43 13.3561C258.308 13.4361 258.211 13.5502 258.153 13.6843L252.237 28.861C252.179 28.9613 252.148 29.0751 252.148 29.1909C252.148 29.3068 252.179 29.4206 252.237 29.5209C252.3 29.6233 252.388 29.7076 252.493 29.7655C252.599 29.8234 252.717 29.8528 252.837 29.8508H253.919C254.065 29.8513 254.209 29.809 254.331 29.729C254.454 29.6491 254.551 29.535 254.609 29.4009L259.203 17.4035L261.666 24.0021L263.828 29.4909C263.878 29.625 263.968 29.7404 264.086 29.821C264.205 29.9016 264.345 29.9435 264.488 29.9408H265.6C265.719 29.9399 265.837 29.9093 265.942 29.8517C266.046 29.7941 266.135 29.7113 266.2 29.6109C266.253 29.5088 266.28 29.3957 266.28 29.2809C266.28 29.1661 266.253 29.053 266.2 28.951L260.254 13.6843Z" fill="#37474F"/>
<path d="M281.425 23.5817C282.072 23.2239 282.627 22.7207 283.046 22.112C283.643 21.1187 283.925 19.9689 283.857 18.8127C283.889 18.0372 283.765 17.2632 283.491 16.5367C283.218 15.8101 282.801 15.146 282.266 14.5836C281.041 13.572 279.464 13.0866 277.881 13.2339H274.879C273.377 13.2339 272.446 14.0437 272.446 16.2333V29.1305C272.421 29.2447 272.423 29.3635 272.454 29.4765C272.484 29.5895 272.542 29.6934 272.622 29.779C272.702 29.8647 272.801 29.9297 272.912 29.9682C273.023 30.0068 273.141 30.0178 273.257 30.0003H274.248C274.439 30.0003 274.622 29.9245 274.758 29.7895C274.893 29.6545 274.969 29.4714 274.969 29.2805V16.6232C274.969 15.8733 275.209 15.6034 275.809 15.6034H278.122C279.039 15.5105 279.96 15.7327 280.734 16.2333C281.053 16.5769 281.293 16.9855 281.438 17.4308C281.583 17.8761 281.63 18.3476 281.575 18.8127C281.599 19.4199 281.486 20.0247 281.245 20.5823C281.032 20.9838 280.709 21.3167 280.314 21.5421C279.816 21.8009 279.278 21.9733 278.722 22.052C278.178 22.1701 277.626 22.2503 277.071 22.292C276.62 22.292 276.71 22.8918 276.77 23.1018L277.041 24.0616C277.041 24.3915 277.221 24.6614 277.881 24.6015C278.542 24.5415 278.602 24.6015 279.233 24.3915L281.755 29.4604C281.78 29.5897 281.841 29.7092 281.931 29.8048C282.022 29.9005 282.138 29.9683 282.266 30.0003H283.437C283.557 30.0023 283.675 29.9729 283.781 29.915C283.886 29.8571 283.974 29.7728 284.037 29.6704C284.098 29.56 284.129 29.4362 284.129 29.3104C284.129 29.1847 284.098 29.0609 284.037 28.9505L281.425 23.5817Z" fill="#37474F"/>
<path d="M139.422 23.5822C140.098 23.2303 140.684 22.7274 141.134 22.1125C141.74 21.1225 142.033 19.9724 141.974 18.8132C142.022 18.0412 141.91 17.2678 141.647 16.5404C141.383 15.8131 140.974 15.1474 140.443 14.5841C139.226 13.58 137.661 13.0952 136.089 13.2344H132.816C131.284 13.2344 130.354 14.0442 130.354 16.2337V29.131C130.354 29.3219 130.429 29.505 130.565 29.64C130.7 29.775 130.883 29.8508 131.074 29.8508H132.125C132.316 29.8508 132.5 29.775 132.635 29.64C132.77 29.505 132.846 29.3219 132.846 29.131V16.6236C132.846 15.8738 133.086 15.6039 133.657 15.6039H135.969C136.895 15.5113 137.826 15.7332 138.611 16.2337C138.918 16.5841 139.148 16.9944 139.288 17.4384C139.427 17.8824 139.473 18.3506 139.422 18.8132C139.446 19.4203 139.333 20.0252 139.092 20.5828C138.879 20.9843 138.556 21.3172 138.161 21.5426C137.667 21.8102 137.127 21.9832 136.569 22.0525C136.035 22.1721 135.494 22.2523 134.948 22.2924C134.467 22.2924 134.557 22.8923 134.618 23.1023L134.888 24.062C134.888 24.392 135.098 24.6619 135.729 24.6019C136.359 24.5419 136.479 24.6019 137.08 24.392L139.602 29.4609C139.664 29.5814 139.759 29.682 139.876 29.751C139.993 29.82 140.127 29.8546 140.263 29.8508H141.404C141.527 29.8491 141.647 29.8161 141.753 29.755C141.86 29.6938 141.949 29.6065 142.012 29.5014C142.075 29.3962 142.11 29.2767 142.114 29.1541C142.118 29.0316 142.091 28.91 142.035 28.801L139.422 23.5822Z" fill="#37474F"/>
<path d="M17.7771 8.16527L15.0145 1.56669C14.7665 1.14764 14.4272 0.78981 14.0217 0.51979C13.6162 0.24977 13.155 0.0745059 12.6723 0.0070253H2.40265C2.00974 -0.0242727 1.61556 0.0493821 1.26055 0.220436C0.905543 0.391489 0.602472 0.653785 0.382425 0.980422C0.162377 1.30706 0.033273 1.68628 0.00835255 2.0792C-0.0165679 2.47211 0.0635926 2.86457 0.240613 3.21634L3.00321 9.75493C3.17584 10.2758 3.51788 10.7241 3.97494 11.0284C4.432 11.3328 4.97782 11.4757 5.52559 11.4346L16.2457 10.7747C18.0173 10.6547 18.4077 9.60496 17.7771 8.16527Z" fill="url(#paint3_linear_8438_227088)"/>
<path d="M97.0219 43.078C100.415 41.5483 100.986 39.8087 100.325 35.7596L92.848 11.2848C92.613 9.89194 91.8684 8.63588 90.7587 7.76026C89.6491 6.88464 88.2534 6.45185 86.8424 6.54584L60.7178 8.1355C74.2318 18.2239 86.428 29.9627 97.0219 43.078Z" fill="url(#paint4_linear_8438_227088)"/>
</g>
<defs>
<linearGradient id="paint0_linear_8438_227088" x1="19.9998" y1="33.2701" x2="100.566" y2="33.2701" gradientUnits="userSpaceOnUse">
<stop stop-color="#F8F094"/>
<stop offset="1" stop-color="#E95A0C"/>
</linearGradient>
<linearGradient id="paint1_linear_8438_227088" x1="0.000386706" y1="5.7058" x2="18.0474" y2="5.7058" gradientUnits="userSpaceOnUse">
<stop stop-color="#E95A0C"/>
<stop offset="1" stop-color="#F8F094"/>
</linearGradient>
<linearGradient id="paint2_linear_8438_227088" x1="60.6577" y1="24.8119" x2="100.565" y2="24.8119" gradientUnits="userSpaceOnUse">
<stop stop-color="#F8F094"/>
<stop offset="1" stop-color="#E95A0C"/>
</linearGradient>
<linearGradient id="paint3_linear_8438_227088" x1="0.000386706" y1="5.7058" x2="18.0474" y2="5.7058" gradientUnits="userSpaceOnUse">
<stop stop-color="#E95A0C"/>
<stop offset="1" stop-color="#F8F094"/>
</linearGradient>
<linearGradient id="paint4_linear_8438_227088" x1="60.6577" y1="24.8119" x2="100.565" y2="24.8119" gradientUnits="userSpaceOnUse">
<stop stop-color="#F8F094"/>
<stop offset="1" stop-color="#E95A0C"/>
</linearGradient>
<clipPath id="clip0_8438_227088">
<rect width="300.57" height="60" fill="white"/>
</clipPath>
<clipPath id="clip1_8438_227088">
<rect width="300.57" height="60" fill="white"/>
</clipPath>
</defs>
</svg>
